<svg width="20" height="10" viewBox="0 0 20 10" fill="none" xmlns="http://www.w3.org/2000/svg">
<path d="M1.19961 1.72462C1.04859 1.49031 1.12247 1.1819 1.36462 1.03577C1.60677 0.889645 1.9255 0.961129 2.07652 1.19544C5.69087 6.80319 13.3883 6.80349 17.0031 1.19613C17.1541 0.961829 17.4728 0.890368 17.715 1.03652C17.9571 1.18266 18.031 1.49107 17.8799 1.72537C13.8605 7.96044 5.21855 7.9601 1.19961 1.72462ZM9.02328 7.96027H10.0567V9.96027H9.02328V7.96027ZM4.92003 6.96902L5.87135 7.35975L5.06373 9.20076L4.11243 8.81003L4.92003 6.96902ZM1.50155 4.53134L2.23232 5.23845L0.770779 6.65266L0.0400085 5.94556L1.50155 4.53134ZM16.8477 5.23845L17.5785 4.53134L19.04 5.94556L18.3093 6.65266L16.8477 5.23845ZM13.2219 7.34501L14.1801 6.9704L14.9544 8.82477L13.9962 9.19938L13.2219 7.34501Z" fill="#B721FF"/>
</svg>
