<svg width="19" height="13" viewBox="0 0 19 13" fill="none" xmlns="http://www.w3.org/2000/svg">
<path d="M9.5 12.92C6.43919 12.92 3.99641 11.3198 2.81276 10.3659C1.15667 9.03127 0 7.4251 0 6.46C0 5.49489 1.15667 3.88873 2.81276 2.55412C3.99641 1.60023 6.43919 0 9.5 0C12.5608 0 15.0036 1.60023 16.1872 2.55412C17.8433 3.88873 19 5.49489 19 6.46C19 7.4251 17.8433 9.03127 16.1872 10.3659C15.0036 11.3198 12.5608 12.92 9.5 12.92ZM9.5 0.76C6.67247 0.76 4.39532 2.25482 3.28961 3.14588C2.54529 3.74571 1.87601 4.4364 1.4051 5.09072C0.806503 5.92249 0.76 6.34909 0.76 6.46C0.76 6.97442 1.56398 8.38346 3.28961 9.77412C4.39532 10.6652 6.67247 12.16 9.5 12.16C12.3275 12.16 14.6047 10.6652 15.7104 9.77412C16.4547 9.17429 17.124 8.48359 17.5949 7.82928C18.1935 6.99751 18.24 6.57091 18.24 6.46C18.24 5.94557 17.436 4.53653 15.7104 3.14588C14.6047 2.25482 12.3275 0.76 9.5 0.76Z" fill="#B721FF"/>
<path d="M9.49999 9.88004C7.61419 9.88004 6.07999 8.34584 6.07999 6.46004C6.07999 4.57424 7.61419 3.04004 9.49999 3.04004C11.3858 3.04004 12.92 4.57424 12.92 6.46004C12.92 8.34584 11.3858 9.88004 9.49999 9.88004ZM9.49999 3.80004C8.03323 3.80004 6.83999 4.99333 6.83999 6.46004C6.83999 7.92674 8.03323 9.12004 9.49999 9.12004C10.9667 9.12004 12.16 7.92674 12.16 6.46004C12.16 4.99333 10.9667 3.80004 9.49999 3.80004Z" fill="#B721FF"/>
</svg>
