<svg width="20" height="20" viewBox="0 0 20 20" fill="none" xmlns="http://www.w3.org/2000/svg">
<mask id="mask0" mask-type="alpha" maskUnits="userSpaceOnUse" x="0" y="0" width="20" height="20">
<path d="M18.3333 7.1875C17.6562 7.29167 17.1875 7.96875 17.3437 8.64583C17.4479 9.0625 17.4479 9.53125 17.4479 10C17.4479 14.1146 14.1146 17.5 9.94792 17.5C5.78125 17.5 2.5 14.1146 2.5 10C2.5 5.88542 5.83333 2.5 10 2.5C10.9896 2.5 11.9792 2.70833 12.9167 3.07292C13.5417 3.33333 14.2708 3.02083 14.5312 2.39583C14.7917 1.77083 14.4792 1.04167 13.8542 0.78125C12.6042 0.260417 11.3021 0 9.94792 0C4.47917 0 0 4.47917 0 10C0 15.5208 4.47917 20 10 20C15.5208 20 20 15.5208 20 10C20 9.375 19.9479 8.75 19.8437 8.17708C19.6354 7.5 19.0104 7.03125 18.3333 7.1875Z" fill="#0B1E51"/>
<path d="M7.65629 7.65635C6.77087 6.35427 4.58337 7.60427 5.52087 8.90635C6.71879 10.6251 7.81254 12.448 9.01045 14.1668C9.53129 14.948 10.625 15.0001 11.1459 14.1668C13.3334 10.573 15.6771 7.13552 18.5938 4.0626C19.6875 2.91677 17.9167 1.14593 16.823 2.29177C14.2188 5.0001 12.0313 8.07302 10 11.2501C9.27087 10.0522 8.48962 8.85427 7.65629 7.65635Z" fill="#0B1E51"/>
</mask>
<g mask="url(#mask0)">
<circle cx="10.5" cy="10.5" r="11.5" fill="url(#paint0_linear)"/>
</g>
<defs>
<linearGradient id="paint0_linear" x1="7.625" y1="31.2" x2="30.05" y2="16.25" gradientUnits="userSpaceOnUse">
<stop stop-color="#3AB7FE"/>
<stop offset="1" stop-color="#AE2DFF"/>
</linearGradient>
</defs>
</svg>
