<svg width="14" height="14" viewBox="0 0 14 14" fill="none" xmlns="http://www.w3.org/2000/svg">
<path d="M11.9496 2.04723C9.22016 -0.682411 4.77888 -0.682411 2.05009 2.04723C0.727699 3.36941 0 5.12755 0 6.99769C0 8.78765 0.67297 10.4735 1.88941 11.7741H0.317871V13.0438H3.69195L4.43906 9.68151L3.19685 9.40562L2.85511 10.9436C1.83659 9.87403 1.27276 8.48025 1.27276 6.99801C1.27276 5.46772 1.86809 4.02939 2.94993 2.94746C5.18298 0.713595 8.8167 0.713595 11.0498 2.94746C12.1313 4.02939 12.7272 5.46804 12.7272 6.99801C12.7272 8.52799 12.1313 9.966 11.0494 11.0482C9.76363 12.3345 7.991 12.9251 6.1891 12.6686L6.04527 13.9281C6.38351 13.9758 6.68483 14 7.01925 14C8.86316 13.9997 10.6189 13.278 11.9493 11.9475C13.2717 10.6253 14 8.8672 14 6.99738C14 5.12755 13.2717 3.36941 11.9496 2.04723Z" fill="#0B1E51"/>
</svg>
