<svg width="14" height="17" viewBox="0 0 14 17" fill="none" xmlns="http://www.w3.org/2000/svg">
<path d="M1.86807 16.0015C1.86807 16.3748 2.17144 16.6781 2.54476 16.6781H11.4552C11.8282 16.6781 12.1319 16.3748 12.1312 16.021L12.8086 4.27148H13.6615C13.8485 4.27148 14 4.11997 14 3.93331V2.07249C14 1.88547 13.8485 1.73396 13.6615 1.73396H9.70714V0.676695C9.70714 0.303371 9.40341 0 9.03045 0H4.96992C4.59696 0 4.29322 0.303371 4.29322 0.676695V1.73396H0.338528C0.151504 1.73396 0 1.88547 0 2.07249V3.93367C0 4.12033 0.151504 4.27184 0.338528 4.27184H1.19355C1.19355 4.27872 1.19174 4.28489 1.19174 4.29141L1.86807 16.0015ZM11.4556 16.0015L2.5444 15.9822L1.86807 4.27184H12.1312L11.4556 16.0015ZM4.96992 0.676695H9.03045V1.73396H4.96992V0.676695ZM0.677057 3.59514V2.41066H4.63175H9.36897H13.3233V3.59514H12.1323H1.86807H0.677057V3.59514Z" fill="#0B1E51"/>
<path d="M4.25082 14.6763C4.43785 14.6763 4.58935 14.5248 4.58935 14.3378V6.00576C4.58935 5.81874 4.43785 5.66724 4.25082 5.66724C4.0638 5.66724 3.91229 5.81874 3.91229 6.00576V14.3378C3.91229 14.5248 4.0638 14.6763 4.25082 14.6763Z" fill="#0B1E51"/>
<path d="M7.00003 14.6763C7.18669 14.6763 7.33856 14.5248 7.33856 14.3378V6.00576C7.33856 5.81874 7.18705 5.66724 7.00003 5.66724C6.813 5.66724 6.6615 5.81874 6.6615 6.00576V14.3378C6.6615 14.5248 6.81337 14.6763 7.00003 14.6763Z" fill="#0B1E51"/>
<path d="M9.74917 14.6763C9.93583 14.6763 10.0877 14.5248 10.0877 14.3378V6.00576C10.0877 5.81874 9.93583 5.66724 9.74917 5.66724C9.56251 5.66724 9.41064 5.81874 9.41064 6.00576V14.3378C9.41064 14.5248 9.56251 14.6763 9.74917 14.6763Z" fill="#0B1E51"/>
</svg>
